# xmcd
#
# Track frame offsets: 
#        182
#        23282
#        42710
#
# Disc length: 858 seconds
#
# Revision: 1
# Processed by: cddbd v1.5.2PL0 Copyright (c) Steve Scherf et al.
# Submitted via: ExactAudioCopy v1.1
#
DISCID=1a035803
DTITLE=Mike Tramp - Leftovers [3031345]
DYEAR=1997
DGENRE=Rock
TTITLE0=Take A Little Time
TTITLE1=Fears Of Yesterday
TTITLE2=Just A Dream
EXTD=YEAR: 1997
EXTT0=
EXTT1=
EXTT2=
PLAYORDER=
